<svg id="Layer_1" data-name="Layer 1" xmlns="http://www.w3.org/2000/svg" viewBox="0 0 1960 300"><title>Qualitest_Logo_Black</title><path d="M326.35,186.15V30.79h40v153c0,33.62,18.5,52.12,48.76,52.12,30.59,0,48.76-18.5,48.76-52.12v-153h40.35V186.15c0,57.5-39,88.1-89.11,88.1C365.36,274.25,326.35,243.65,326.35,186.15Z"/><path d="M818.65,269.21V30.79H859V230.88H968.29v38.33Z"/><path d="M1015.33,269.31V30.9h41V269.31Z"/><path d="M1219.89,68.79V269.21h-40.36V68.79h-77.34v-38h195.37v38Z"/><path d="M1343.36,269.21V30.79h147.28V68.46H1383.72v63.21h96.84v36.66h-96.84v63.22h106.92v37.66Z"/><path d="M1671,98.05c-2.36-14.8-14.8-36.65-46.75-36.65-24.21,0-41,16.13-41,34.3,0,15.12,9.41,26.56,27.91,30.59l34.3,7.06c42,8.41,64.57,35,64.57,68.6,0,37-29.93,72.3-84.41,72.3-60.53,0-88.44-39-92.14-73.31l37.66-10.76c2.36,24.89,20.17,47.76,54.48,47.76,28.58,0,43.38-14.47,43.38-33,0-15.46-11.43-27.91-32-32.28l-33.62-7.06c-36.32-7.4-60.53-31.28-60.53-66.92,0-40,36.65-73,81-73,56.16,0,78,34.3,83.39,60.86Z"/><path d="M1862.32,68.79V269.21H1822V68.79h-77.34v-38H1940v38Z"/><path d="M144.18,274.12a124.39,124.39,0,1,1,87.21-35.9l35.55,35.54Zm0-209.66a85.48,85.48,0,1,0,85.47,85.47A85.57,85.57,0,0,0,144.18,64.46Z"/><path d="M544.17,269,633.66,30.91l45,.56L767,269H723.49l-20-58.11-94.56-.58-21.65,59.27Zm76.35-93.77H691l-35.26-100Z"/></svg>